<?xml version="1.0" standalone="no"?><!DOCTYPE svg PUBLIC "-//W3C//DTD SVG 1.1//EN" "http://www.w3.org/Graphics/SVG/1.1/DTD/svg11.dtd"><svg t="1608003917981" class="icon" viewBox="0 0 1024 1024" version="1.1" xmlns="http://www.w3.org/2000/svg" p-id="3409" xmlns:xlink="http://www.w3.org/1999/xlink" width="200" height="200"><defs><style type="text/css"></style></defs><path d="M654.024348 287.610435c0 39.17913 31.833043 71.012174 71.012174 71.012174s71.012174-31.833043 71.012174-71.012174-31.833043-71.012174-71.012174-71.012174c-39.401739 0-71.012174 31.833043-71.012174 71.012174zM27.826087 926.274783l0.222609-0.445218h-0.222609zM489.961739 877.078261h-51.645217l80.13913-146.921739h-109.746087l70.566957-150.928696-80.584348-105.516522c-3.561739-4.674783-7.791304-8.681739-12.688696-11.798261-23.373913-14.914783-54.316522-8.236522-69.231304 15.137392L28.048696 925.829565h436.313043l25.6-48.751304z" p-id="3410" fill="#bfbfbf"></path><path d="M514.448696 625.753043l-17.14087-22.483478-46.747826 100.173913h112.862609l-80.139131 146.921739H534.26087l-39.624348 75.464348h501.76L714.573913 583.012174c-1.113043-1.335652-2.226087-2.671304-3.561739-3.784348-19.589565-19.366957-51.422609-19.144348-70.789565 0.445217l-50.086957 50.754783c-1.78087 1.78087-3.561739 3.33913-5.342609 4.674783-21.815652 16.918261-53.648696 12.688696-70.344347-9.349566zM27.603478 925.829565v0.445218l0.445218-0.445218z" p-id="3411" fill="#bfbfbf"></path></svg>